<?xml version="1.0" standalone="no"?>
<!DOCTYPE svg PUBLIC "-//W3C//DTD SVG 20010904//EN"
 "http://www.w3.org/TR/2001/REC-SVG-20010904/DTD/svg10.dtd">
<svg version="1.0" xmlns="http://www.w3.org/2000/svg"
 width="10144.000000pt" height="2000.000000pt" viewBox="0 0 10144.000000 2000.000000"
 preserveAspectRatio="xMidYMid meet">

<g transform="translate(0.000000,2000.000000) scale(0.100000,-0.100000)"
fill="#000000" stroke="none">
<path d="M168 9983 l-3 -4847 -77 -46 c-43 -25 -78 -47 -78 -50 0 -3 35 -26
77 -50 l78 -45 5 -93 5 -92 78 45 78 44 4032 -2328 4032 -2328 3 -96 3 -96 75
44 c42 25 80 45 86 45 6 0 42 -18 80 -40 39 -22 74 -40 79 -40 4 0 10 42 11
92 l3 93 4005 2313 c2203 1272 4017 2319 4031 2327 24 13 31 11 103 -31 43
-24 80 -44 82 -44 2 0 4 42 4 93 l0 92 80 45 c44 25 80 47 80 50 0 3 -36 25
-80 50 l-80 45 -2 4846 -3 4847 -3965 -2290 c-4005 -2312 -4415 -2548 -4426
-2548 -3 0 -79 41 -168 91 -176 100 -8167 4712 -8203 4735 l-23 14 -2 -4847z
m4200 2041 c2121 -1225 3858 -2227 3859 -2228 2 -2 -3344 -1934 -7559 -4368
l-168 -97 0 4460 c0 2452 3 4459 6 4459 3 0 1741 -1002 3862 -2226z m4020
-9213 l-3 -2229 -3857 2227 c-2122 1224 -3857 2228 -3857 2231 0 3 1736 1007
3857 2231 l3857 2226 3 -2229 c1 -1225 1 -3231 0 -4457z m4235 4444 c2105
-1215 3827 -2212 3827 -2216 0 -4 -7640 -4419 -7712 -4456 -5 -2 -8 2004 -8
4457 l0 4462 33 -19 c17 -10 1754 -1013 3860 -2228z"/>
</g>
</svg>
